<svg viewBox="0 0 40 40" fill="none" xmlns="http://www.w3.org/2000/svg">
  <defs>
    <linearGradient id="g" x1="8" y1="6" x2="34" y2="36" gradientUnits="userSpaceOnUse">
      <stop stop-color="#7B93FF"/>
      <stop offset="0.55" stop-color="#5B7CFA"/>
      <stop offset="1" stop-color="#4A6AE8"/>
    </linearGradient>
    <clipPath id="left">
      <rect x="10" y="8" width="9.5" height="24"/>
    </clipPath>
    <clipPath id="right">
      <rect x="20.5" y="8" width="9.5" height="24"/>
    </clipPath>
  </defs>
  <circle cx="20" cy="20" r="20" fill="url(#g)"/>
  <ellipse cx="13" cy="12" rx="9" ry="7" fill="white" fill-opacity="0.1"/>
  <path d="M12 9h16c1.7 0 3 1.3 3 3v14.5l-1.8 2.2-1.8-2-1.8 2.2-1.8-2-1.8 2.2-1.8-2-1.8 2.2-1.8-2-1.8 2.2-1.8-2L11 26.5V12c0-1.7 1.3-3 3-3z" fill="white" fill-opacity="0.97"/>
  <rect x="19.25" y="11" width="1.5" height="16.5" rx="0.75" fill="url(#g)"/>
  <g clip-path="url(#left)">
    <rect x="13.5" y="13.5" width="5" height="2" rx="1" fill="#5B7CFA"/>
    <rect x="13.5" y="17.5" width="3.5" height="2" rx="1" fill="#5B7CFA"/>
    <rect x="13.5" y="21.5" width="4.5" height="2" rx="1" fill="#5B7CFA"/>
    <circle cx="15.5" cy="25.5" r="1.5" fill="#5B7CFA" fill-opacity="0.35"/>
  </g>
  <g clip-path="url(#right)">
    <rect x="21" y="13.5" width="4.5" height="2" rx="1" fill="#5B7CFA" fill-opacity="0.45"/>
    <rect x="21" y="17.5" width="5" height="2" rx="1" fill="#5B7CFA" fill-opacity="0.45"/>
    <rect x="21" y="21.5" width="3.5" height="2" rx="1" fill="#5B7CFA" fill-opacity="0.45"/>
    <circle cx="24.5" cy="25.5" r="1.5" fill="#5B7CFA" fill-opacity="0.35"/>
  </g>
</svg>
